<?xml version="1.0" standalone="no"?>
<!DOCTYPE svg PUBLIC "-//W3C//DTD SVG 20010904//EN"
 "http://www.w3.org/TR/2001/REC-SVG-20010904/DTD/svg10.dtd">
<svg version="1.0" xmlns="http://www.w3.org/2000/svg"
 width="318.000000pt" height="137.000000pt" viewBox="0 0 318.000000 137.000000"
 preserveAspectRatio="xMidYMid meet">

<g transform="translate(0.000000,137.000000) scale(0.100000,-0.100000)"
fill="#000000" stroke="none">
<path d="M2820 1075 l215 -215 3 196 c2 173 0 199 -14 215 -16 17 -35 19 -218
19 l-201 0 215 -215z"/>
<path d="M1900 985 c0 -25 -2 -45 -3 -45 -2 0 -18 7 -35 16 -27 13 -36 13 -59
2 -15 -7 -34 -26 -41 -41 -36 -74 50 -160 113 -113 17 12 21 12 31 -3 7 -9 14
-14 16 -11 8 11 -4 240 -13 240 -5 0 -9 -20 -9 -45z m-26 -56 c49 -39 25 -119
-36 -119 -28 0 -58 37 -58 70 0 31 30 70 54 70 7 0 25 -9 40 -21z"/>
<path d="M260 987 l-25 -13 -3 -424 c-2 -423 -2 -425 19 -442 19 -17 55 -18
430 -18 396 0 410 1 429 20 19 19 20 33 20 238 l0 217 -217 218 -216 217 -206
0 c-146 0 -213 -4 -231 -13z m210 -512 l0 -255 -50 0 -50 0 0 255 0 255 50 0
50 0 0 -255z m360 217 c68 -42 105 -121 104 -221 -2 -159 -99 -262 -235 -249
-63 6 -120 45 -155 104 -39 67 -46 188 -14 261 56 131 184 176 300 105z"/>
<path d="M677 609 c-25 -15 -57 -86 -57 -129 0 -89 40 -150 100 -150 60 0 100
58 100 146 0 106 -73 174 -143 133z"/>
<path d="M1025 955 l-30 -14 42 6 c47 6 73 -7 73 -38 0 -16 -8 -19 -43 -19
-67 0 -99 -47 -59 -83 23 -21 61 -22 89 -2 19 13 22 13 27 -1 3 -8 10 -13 14
-10 13 8 -4 136 -19 151 -22 22 -61 26 -94 10z m82 -91 c10 -27 -11 -49 -47
-49 -40 0 -61 25 -41 49 18 22 80 21 88 0z"/>
<path d="M1294 955 c-35 -14 -44 -31 -44 -81 0 -70 78 -108 131 -64 20 16 21
19 7 20 -9 0 -20 -4 -23 -10 -11 -17 -54 -11 -76 11 -28 28 -22 76 14 103 27
20 29 20 57 4 29 -17 51 -9 27 9 -22 18 -62 22 -93 8z"/>
<path d="M1538 959 c-16 -6 -28 -15 -28 -20 0 -6 8 -6 19 1 43 23 91 6 91 -32
0 -14 -8 -18 -41 -18 -53 0 -79 -15 -79 -45 0 -49 53 -71 98 -39 20 14 23 14
28 0 3 -9 10 -16 14 -16 11 0 -1 143 -14 157 -17 18 -58 23 -88 12z m79 -95
c11 -29 -11 -49 -53 -49 -42 0 -57 22 -34 50 17 21 79 19 87 -1z"/>
<path d="M2082 955 c-32 -14 -52 -47 -52 -86 0 -31 53 -79 88 -79 32 0 91 39
60 40 -9 0 -20 -4 -23 -10 -10 -17 -61 -11 -78 8 -31 34 -21 42 53 42 66 0 70
1 70 23 0 23 -33 67 -50 67 -4 0 -14 2 -22 5 -7 2 -28 -2 -46 -10z m78 -25
c32 -32 24 -40 -40 -40 -64 0 -73 9 -43 42 21 24 58 23 83 -2z"/>
<path d="M2380 963 c-8 -3 -23 -12 -32 -21 -16 -14 -18 -13 -18 1 0 10 -4 17
-10 17 -6 0 -10 -35 -10 -85 0 -50 4 -85 10 -85 6 0 10 25 10 55 0 46 4 60 25
80 13 14 29 25 34 25 23 0 41 -46 41 -102 0 -32 4 -58 10 -58 6 0 10 26 10 59
0 52 3 62 26 80 43 34 62 15 66 -66 2 -45 7 -68 17 -71 11 -4 13 11 9 73 -3
62 -7 80 -23 91 -20 15 -50 10 -75 -11 -12 -11 -19 -10 -39 6 -25 20 -27 21
-51 12z"/>
<path d="M2670 957 c0 -3 16 -42 35 -86 29 -69 33 -85 23 -106 -6 -14 -17 -25
-25 -25 -7 0 -13 -4 -13 -10 0 -14 37 -12 47 2 12 20 91 223 87 227 -9 10 -25
-16 -44 -74 -12 -36 -25 -65 -28 -65 -4 0 -18 30 -32 67 -14 36 -31 68 -37 71
-7 2 -13 1 -13 -1z"/>
</g>
</svg>
